<svg xmlns="http://www.w3.org/2000/svg" width="600" height="600" viewBox="0 0 600 600">
<g>
<path d="M 285.50,453.29 C275.28,451.87 256.76,445.86 244.50,439.97 C220.87,428.62 200.81,409.82 187.75,386.77 C177.36,368.45 173.37,357.91 170.03,340.00 C168.85,333.68 167.43,326.25 166.88,323.50 C165.30,315.59 163.80,270.22 164.49,251.00 C165.58,220.83 168.16,205.16 174.97,187.50 C177.09,182.00 179.14,176.38 179.52,175.00 C181.50,167.92 192.49,152.28 203.39,141.00 C220.59,123.23 238.69,114.02 271.50,106.37 C281.55,104.03 284.44,103.80 305.00,103.78 C328.65,103.74 334.10,104.43 353.64,109.94 C361.27,112.09 382.12,122.37 391.50,128.60 C398.50,133.26 418.00,152.47 418.00,154.72 C418.00,155.02 420.91,160.49 424.46,166.88 C432.19,180.80 439.54,199.51 441.58,210.50 C445.57,232.00 445.84,310.54 442.01,334.51 C439.74,348.72 434.26,368.57 430.59,375.86 C429.31,378.41 427.94,381.54 427.54,382.81 C427.15,384.08 424.86,388.36 422.45,392.31 C420.05,396.27 417.31,401.07 416.36,403.00 C413.93,407.93 390.42,431.03 385.00,433.81 C382.52,435.08 378.48,437.34 376.00,438.84 C368.40,443.43 356.99,448.24 350.59,449.55 C347.24,450.24 340.97,451.52 336.66,452.40 C330.81,453.59 323.72,453.96 308.66,453.85 C297.57,453.77 287.15,453.51 285.50,453.29 M 341.50,437.60 C360.03,432.81 378.38,422.31 392.65,408.34 C401.17,400.00 403.52,396.75 411.31,382.50 C419.75,367.08 426.08,347.96 429.03,329.00 C430.72,318.18 431.49,246.46 430.09,231.09 C428.15,209.83 420.88,186.00 412.37,173.04 C393.87,144.85 374.07,129.93 343.50,121.14 C331.02,117.55 321.00,116.67 299.55,117.29 C282.58,117.77 277.99,118.25 269.67,120.39 C247.98,125.98 227.63,137.08 217.50,148.84 C215.85,150.76 212.47,154.34 210.00,156.79 C207.53,159.25 206.18,160.93 207.00,160.52 C207.82,160.11 207.32,160.84 205.88,162.14 C199.90,167.54 192.36,181.85 187.69,196.66 C180.51,219.42 179.55,228.26 179.52,271.50 C179.50,308.96 180.07,315.53 185.44,339.18 C190.02,359.36 204.17,389.66 212.99,398.15 C213.93,399.06 216.31,401.76 218.27,404.15 C223.73,410.80 233.86,418.72 245.13,425.12 C256.93,431.83 265.36,435.07 280.00,438.51 C289.78,440.81 291.91,440.95 311.00,440.59 C329.01,440.24 332.72,439.87 341.50,437.60 M 225.00,269.04 L 225.00,173.00 L 240.75,173.04 L 256.50,173.08 L 259.55,177.29 C266.91,187.43 281.68,209.92 295.50,232.00 C299.80,238.88 304.14,245.43 305.16,246.56 C306.17,247.70 307.00,249.14 307.00,249.76 C307.00,254.65 314.78,244.56 325.69,225.50 C327.89,221.65 332.08,214.68 335.00,210.00 C343.04,197.13 350.20,185.41 353.17,180.23 C357.24,173.16 357.68,173.00 372.68,173.00 L 385.99,173.00 L 385.74,268.75 L 385.50,364.50 L 377.34,364.79 L 369.17,365.08 L 369.28,338.29 C369.38,312.23 368.40,300.48 366.00,299.00 C365.46,298.66 364.91,297.21 364.79,295.77 C364.67,294.32 364.19,293.38 363.72,293.67 C363.25,293.96 363.11,294.44 363.40,294.73 C363.69,295.02 363.55,295.99 363.09,296.88 C361.93,299.12 360.58,350.38 361.70,349.68 C362.21,349.37 362.29,351.56 361.88,354.82 C361.49,357.94 361.13,361.51 361.08,362.75 C361.01,364.76 360.49,365.00 356.25,364.99 C353.64,364.98 350.49,364.70 349.25,364.37 L 347.00,363.77 L 346.98,323.13 C346.98,298.63 346.58,281.90 346.00,281.00 C345.16,279.69 345.03,279.71 345.02,281.13 C345.01,282.02 344.32,283.32 343.50,284.00 C342.68,284.68 342.00,286.04 342.00,287.01 C342.00,288.01 341.32,288.72 340.43,288.64 C338.80,288.50 334.00,295.88 334.00,298.53 C334.00,299.34 333.66,300.00 333.24,300.00 C332.83,300.00 331.86,301.46 331.10,303.25 C330.34,305.04 328.91,307.40 327.93,308.50 C326.16,310.48 311.00,341.06 311.00,342.67 C310.99,343.12 309.90,344.85 308.56,346.50 C306.18,349.45 306.11,349.47 304.63,347.50 C303.79,346.40 302.35,343.48 301.41,341.00 C298.05,332.12 271.77,279.85 270.41,279.33 C269.64,279.03 269.30,278.32 269.66,277.74 C270.05,277.11 269.83,276.99 269.11,277.43 C268.45,277.84 267.98,278.92 268.07,279.84 C268.38,283.02 268.01,284.57 267.23,283.35 C266.83,282.71 266.50,300.82 266.50,323.60 L 266.50,365.00 L 259.25,365.00 L 252.00,365.00 L 252.00,348.94 C252.00,340.11 251.64,333.10 251.20,333.37 C250.77,333.64 250.83,331.05 251.34,327.62 C252.34,320.95 251.43,309.61 249.98,310.51 C249.50,310.81 249.28,310.14 249.49,309.03 C249.71,307.92 249.28,305.85 248.55,304.43 C247.00,301.44 246.01,302.40 244.92,307.97 C244.30,311.14 244.20,310.89 243.89,305.50 C243.70,302.20 243.31,314.12 243.02,332.00 L 242.50,364.50 L 233.75,364.79 L 225.00,365.08 L 225.00,269.04 M 250.08,338.42 C250.13,337.25 250.36,337.01 250.68,337.81 C250.97,338.53 250.94,339.40 250.60,339.73 C250.27,340.06 250.04,339.47 250.08,338.42 Z" fill="rgba(0,0,0,1)"/>
</g>
</svg>